<svg xmlns="http://www.w3.org/2000/svg" width="1600" height="1130" viewBox="0 0 1600 1130">
  <defs>
    <linearGradient id="grBrand" x1="0" y1="0" x2="0" y2="1"><stop offset="0" stop-color="#52796f"/><stop offset="1" stop-color="#2f3e46"/></linearGradient>
    <linearGradient id="grHead" x1="0" y1="0" x2="1" y2="1"><stop offset="0" stop-color="#52796f"/><stop offset="1" stop-color="#2f3e46"/></linearGradient>
  </defs>
  <rect width="1600" height="1130" fill="#eef2f0"/>
  <rect x="0" y="0" width="1600" height="168" fill="url(#grHead)"/><rect x="52" y="40" width="88" height="88" rx="20.240000000000002" fill="url(#grBrand)"/><g transform="translate(52,40) scale(0.171875)"><path d="M256 108 L360 146 V250 C360 326 310 378 256 406 C202 378 152 326 152 250 V146 Z" fill="#ffffff" fill-opacity="0.14" stroke="#cad2c5" stroke-width="10" stroke-linejoin="round"/><path d="M206 256 L242 296 L318 202" fill="none" stroke="#ffffff" stroke-width="30" stroke-linecap="round" stroke-linejoin="round"/></g><text x="164" y="84" font-family="DejaVu Sans" font-size="34" font-weight="bold" fill="#fff" text-anchor="start">Talent Shield HRMS</text><text x="164" y="124" font-family="DejaVu Sans" font-size="22" font-weight="normal" fill="#cad2c5" text-anchor="start">Install on Android</text><rect x="1326" y="62" width="222" height="44" rx="22" fill="rgba(255,255,255,0.14)" stroke="rgba(255,255,255,0.35)" stroke-width="1"/><text x="1437" y="90" font-family="DejaVu Sans" font-size="17" font-weight="bold" fill="#fff" text-anchor="middle">Android · Chrome</text><rect x="0" y="1042" width="1600" height="88" fill="#2f3e46"/><text x="52" y="1090" font-family="DejaVu Sans" font-size="17" font-weight="normal" fill="#cad2c5" text-anchor="start">Add Talent Shield to your Home Screen using Chrome — takes 20 seconds.</text><text x="1548" y="1082" font-family="DejaVu Sans" font-size="14" font-weight="normal" fill="#84a98c" text-anchor="end">Open in your browser:</text><text x="1548" y="1106" font-family="DejaVu Sans" font-size="20" font-weight="bold" fill="#fff" text-anchor="end">hrmsmobile.vitruxshield.com</text>
  <circle cx="362" cy="205" r="24" fill="url(#grBrand)"/><text x="362" y="214" font-family="DejaVu Sans" font-size="24" font-weight="bold" fill="#fff" text-anchor="middle">1</text><text x="362" y="262" font-family="DejaVu Sans" font-size="19" font-weight="bold" fill="#2f3e46" text-anchor="middle">Open the link in Chrome,</text><text x="362" y="288" font-family="DejaVu Sans" font-size="19" font-weight="normal" fill="#2f3e46" text-anchor="middle">then tap the menu (top-right).</text><rect x="176" y="300" width="372" height="742" rx="46" fill="#0c1416"/><rect x="179" y="303" width="366" height="736" rx="43" fill="#1c272c"/><clipPath id="clip0"><rect x="188" y="312" width="348" height="718" rx="34"/></clipPath><g clip-path="url(#clip0)"><rect x="188" y="312" width="348" height="718" fill="#fff"/><text x="210" y="333" font-family="DejaVu Sans" font-size="16" font-weight="bold" fill="#26333a" text-anchor="start">9:41</text><rect x="452" y="329" width="3.4" height="4" rx="1" fill="#26333a"/><rect x="457" y="326" width="3.4" height="7" rx="1" fill="#26333a"/><rect x="462" y="323" width="3.4" height="10" rx="1" fill="#26333a"/><rect x="467" y="320" width="3.4" height="13" rx="1" fill="#26333a"/><path d="M480 326 Q488 317 496 326" fill="none" stroke="#26333a" stroke-width="1.8"/><path d="M483 329 Q488 323 493 329" fill="none" stroke="#26333a" stroke-width="1.8"/><circle cx="488" cy="332" r="1.6" fill="#26333a"/><rect x="496" y="321" width="24" height="12" rx="3" fill="none" stroke="#26333a" stroke-width="1.5"/><rect x="498" y="323" width="16" height="8" rx="1.5" fill="#26333a"/><rect x="521" y="324.5" width="2.2" height="5" rx="1" fill="#26333a"/><rect x="188" y="342" width="348" height="56" fill="#fff"/><line x1="188" y1="398" x2="536" y2="398" stroke="#e4e9e7" stroke-width="1"/><rect x="210" y="367.85" width="13" height="7.8" rx="2" fill="#7d8c87"/><path d="M212.6 367.85 V365.64 a3.9 3.9 0 0 1 7.8 0 V367.85" fill="none" stroke="#7d8c87" stroke-width="1.6"/><text x="230" y="375" font-family="DejaVu Sans" font-size="14.5" font-weight="normal" fill="#26333a" text-anchor="start">hrmsmobile.vitruxshield.com</text><circle cx="508" cy="363" r="2.4" fill="#26333a"/><circle cx="508" cy="370" r="2.4" fill="#26333a"/><circle cx="508" cy="377" r="2.4" fill="#26333a"/><ellipse cx="508" cy="370" rx="24" ry="26" fill="none" stroke="#e5484d" stroke-width="5"/><rect x="188" y="398" width="348" height="632" fill="#f6f8f7"/><rect x="316" y="499" width="92" height="92" rx="21.16" fill="url(#grBrand)"/><g transform="translate(316,499) scale(0.1796875)"><path d="M256 108 L360 146 V250 C360 326 310 378 256 406 C202 378 152 326 152 250 V146 Z" fill="#ffffff" fill-opacity="0.14" stroke="#cad2c5" stroke-width="10" stroke-linejoin="round"/><path d="M206 256 L242 296 L318 202" fill="none" stroke="#ffffff" stroke-width="30" stroke-linecap="round" stroke-linejoin="round"/></g><text x="362" y="641" font-family="DejaVu Sans" font-size="27" font-weight="bold" fill="#2f3e46" text-anchor="middle">Talent Shield</text><text x="362" y="671" font-family="DejaVu Sans" font-size="15" font-weight="normal" fill="#7d8c87" text-anchor="middle">HRMS  ·  Employee Portal</text><rect x="223" y="705" width="278" height="48" rx="12" fill="#fff" stroke="#e4e9e7" stroke-width="1.5"/><text x="241" y="734" font-family="DejaVu Sans" font-size="16" font-weight="normal" fill="#7d8c87" text-anchor="start">Email address</text><rect x="223" y="765" width="278" height="48" rx="12" fill="#fff" stroke="#e4e9e7" stroke-width="1.5"/><text x="241" y="794" font-family="DejaVu Sans" font-size="16" font-weight="normal" fill="#7d8c87" text-anchor="start">Password</text><rect x="223" y="829" width="278" height="50" rx="12" fill="#52796f" /><text x="362" y="861" font-family="DejaVu Sans" font-size="18" font-weight="bold" fill="#fff" text-anchor="middle">Sign In</text><text x="362" y="911" font-family="DejaVu Sans" font-size="13" font-weight="normal" fill="#52796f" text-anchor="middle">Forgot password?</text></g><circle cx="800" cy="205" r="24" fill="url(#grBrand)"/><text x="800" y="214" font-family="DejaVu Sans" font-size="24" font-weight="bold" fill="#fff" text-anchor="middle">2</text><text x="800" y="262" font-family="DejaVu Sans" font-size="19" font-weight="bold" fill="#2f3e46" text-anchor="middle">Tap “Add to Home screen”</text><text x="800" y="288" font-family="DejaVu Sans" font-size="19" font-weight="normal" fill="#2f3e46" text-anchor="middle">(or “Install app”).</text><rect x="614" y="300" width="372" height="742" rx="46" fill="#0c1416"/><rect x="617" y="303" width="366" height="736" rx="43" fill="#1c272c"/><clipPath id="clip1"><rect x="626" y="312" width="348" height="718" rx="34"/></clipPath><g clip-path="url(#clip1)"><rect x="626" y="312" width="348" height="718" fill="#fff"/><rect x="626" y="312" width="348" height="718" fill="#f6f8f7"/><text x="648" y="333" font-family="DejaVu Sans" font-size="16" font-weight="bold" fill="#26333a" text-anchor="start">9:41</text><rect x="890" y="329" width="3.4" height="4" rx="1" fill="#26333a"/><rect x="895" y="326" width="3.4" height="7" rx="1" fill="#26333a"/><rect x="900" y="323" width="3.4" height="10" rx="1" fill="#26333a"/><rect x="905" y="320" width="3.4" height="13" rx="1" fill="#26333a"/><path d="M918 326 Q926 317 934 326" fill="none" stroke="#26333a" stroke-width="1.8"/><path d="M921 329 Q926 323 931 329" fill="none" stroke="#26333a" stroke-width="1.8"/><circle cx="926" cy="332" r="1.6" fill="#26333a"/><rect x="934" y="321" width="24" height="12" rx="3" fill="none" stroke="#26333a" stroke-width="1.5"/><rect x="936" y="323" width="16" height="8" rx="1.5" fill="#26333a"/><rect x="959" y="324.5" width="2.2" height="5" rx="1" fill="#26333a"/><rect x="626" y="342" width="348" height="56" fill="#fff"/><rect x="648" y="367.85" width="13" height="7.8" rx="2" fill="#7d8c87"/><path d="M650.6 367.85 V365.64 a3.9 3.9 0 0 1 7.8 0 V367.85" fill="none" stroke="#7d8c87" stroke-width="1.6"/><text x="668" y="375" font-family="DejaVu Sans" font-size="14.5" font-weight="normal" fill="#26333a" text-anchor="start">hrmsmobile.vitruxshield.com</text><circle cx="946" cy="363" r="2.4" fill="#26333a"/><circle cx="946" cy="370" r="2.4" fill="#26333a"/><circle cx="946" cy="377" r="2.4" fill="#26333a"/><rect x="626" y="312" width="348" height="718" fill="#000" fill-opacity="0.28"/><rect x="716" y="352" width="246" height="416" rx="12" fill="#fff" /><text x="738" y="390" font-family="DejaVu Sans" font-size="15.5" font-weight="normal" fill="#26333a" text-anchor="start">New tab</text><text x="738" y="430" font-family="DejaVu Sans" font-size="15.5" font-weight="normal" fill="#26333a" text-anchor="start">New incognito tab</text><text x="738" y="470" font-family="DejaVu Sans" font-size="15.5" font-weight="normal" fill="#26333a" text-anchor="start">History</text><text x="738" y="510" font-family="DejaVu Sans" font-size="15.5" font-weight="normal" fill="#26333a" text-anchor="start">Downloads</text><text x="738" y="550" font-family="DejaVu Sans" font-size="15.5" font-weight="normal" fill="#26333a" text-anchor="start">Bookmarks</text><text x="738" y="590" font-family="DejaVu Sans" font-size="15.5" font-weight="normal" fill="#26333a" text-anchor="start">Share…</text><text x="738" y="630" font-family="DejaVu Sans" font-size="15.5" font-weight="normal" fill="#26333a" text-anchor="start">Find in page</text><text x="738" y="670" font-family="DejaVu Sans" font-size="15.5" font-weight="bold" fill="#26333a" text-anchor="start">Add to Home screen</text><rect x="922" y="652" width="22" height="22" rx="6" fill="none" stroke="#26333a" stroke-width="2"/><line x1="933" y1="658" x2="933" y2="668" stroke="#26333a" stroke-width="2" stroke-linecap="round"/><line x1="928" y1="663" x2="938" y2="663" stroke="#26333a" stroke-width="2" stroke-linecap="round"/><rect x="722" y="646" width="234" height="36" rx="10" fill="none" stroke="#e5484d" stroke-width="4.5"/><text x="738" y="710" font-family="DejaVu Sans" font-size="15.5" font-weight="normal" fill="#26333a" text-anchor="start">Desktop site</text><text x="738" y="750" font-family="DejaVu Sans" font-size="15.5" font-weight="normal" fill="#26333a" text-anchor="start">Settings</text></g><circle cx="1238" cy="205" r="24" fill="url(#grBrand)"/><text x="1238" y="214" font-family="DejaVu Sans" font-size="24" font-weight="bold" fill="#fff" text-anchor="middle">3</text><text x="1238" y="262" font-family="DejaVu Sans" font-size="19" font-weight="bold" fill="#2f3e46" text-anchor="middle">Tap “Install”. The app now</text><text x="1238" y="288" font-family="DejaVu Sans" font-size="19" font-weight="normal" fill="#2f3e46" text-anchor="middle">lives on your Home Screen.</text><rect x="1052" y="300" width="372" height="742" rx="46" fill="#0c1416"/><rect x="1055" y="303" width="366" height="736" rx="43" fill="#1c272c"/><clipPath id="clip2"><rect x="1064" y="312" width="348" height="718" rx="34"/></clipPath><g clip-path="url(#clip2)"><rect x="1064" y="312" width="348" height="718" fill="#fff"/><rect x="1064" y="312" width="348" height="718" fill="#f6f8f7"/><text x="1086" y="333" font-family="DejaVu Sans" font-size="16" font-weight="bold" fill="#26333a" text-anchor="start">9:41</text><rect x="1328" y="329" width="3.4" height="4" rx="1" fill="#26333a"/><rect x="1333" y="326" width="3.4" height="7" rx="1" fill="#26333a"/><rect x="1338" y="323" width="3.4" height="10" rx="1" fill="#26333a"/><rect x="1343" y="320" width="3.4" height="13" rx="1" fill="#26333a"/><path d="M1356 326 Q1364 317 1372 326" fill="none" stroke="#26333a" stroke-width="1.8"/><path d="M1359 329 Q1364 323 1369 329" fill="none" stroke="#26333a" stroke-width="1.8"/><circle cx="1364" cy="332" r="1.6" fill="#26333a"/><rect x="1372" y="321" width="24" height="12" rx="3" fill="none" stroke="#26333a" stroke-width="1.5"/><rect x="1374" y="323" width="16" height="8" rx="1.5" fill="#26333a"/><rect x="1397" y="324.5" width="2.2" height="5" rx="1" fill="#26333a"/><rect x="1064" y="342" width="348" height="56" fill="#fff"/><rect x="1086" y="367.85" width="13" height="7.8" rx="2" fill="#7d8c87"/><path d="M1088.6 367.85 V365.64 a3.9 3.9 0 0 1 7.8 0 V367.85" fill="none" stroke="#7d8c87" stroke-width="1.6"/><text x="1106" y="375" font-family="DejaVu Sans" font-size="14.5" font-weight="normal" fill="#26333a" text-anchor="start">hrmsmobile.vitruxshield.com</text><circle cx="1384" cy="363" r="2.4" fill="#26333a"/><circle cx="1384" cy="370" r="2.4" fill="#26333a"/><circle cx="1384" cy="377" r="2.4" fill="#26333a"/><rect x="1064" y="312" width="348" height="718" fill="#000" fill-opacity="0.30"/><rect x="1064" y="744" width="348" height="320" rx="22" fill="#fff" /><rect x="1220" y="756" width="36" height="5" rx="2.5" fill="#dadce0"/><rect x="1094" y="784" width="60" height="60" rx="13.8" fill="url(#grBrand)"/><g transform="translate(1094,784) scale(0.1171875)"><path d="M256 108 L360 146 V250 C360 326 310 378 256 406 C202 378 152 326 152 250 V146 Z" fill="#ffffff" fill-opacity="0.14" stroke="#cad2c5" stroke-width="10" stroke-linejoin="round"/><path d="M206 256 L242 296 L318 202" fill="none" stroke="#ffffff" stroke-width="30" stroke-linecap="round" stroke-linejoin="round"/></g><text x="1168" y="810" font-family="DejaVu Sans" font-size="18" font-weight="bold" fill="#26333a" text-anchor="start">Install app</text><text x="1168" y="836" font-family="DejaVu Sans" font-size="14" font-weight="normal" fill="#7d8c87" text-anchor="start">Talent Shield HRMS</text><line x1="1064" y1="874" x2="1412" y2="874" stroke="#e4e9e7" stroke-width="1"/><text x="1094" y="910" font-family="DejaVu Sans" font-size="13" font-weight="normal" fill="#7d8c87" text-anchor="start">https://hrmsmobile.vitruxshield.com</text><text x="1262" y="976" font-family="DejaVu Sans" font-size="16" font-weight="bold" fill="#1a73e8" text-anchor="end">Cancel</text><rect x="1284" y="950" width="104" height="44" rx="22" fill="#1a73e8" /><text x="1336" y="978" font-family="DejaVu Sans" font-size="16" font-weight="bold" fill="#fff" text-anchor="middle">Install</text><ellipse cx="1336" cy="972" rx="66" ry="34" fill="none" stroke="#e5484d" stroke-width="5"/></g>
</svg>