<svg xmlns="http://www.w3.org/2000/svg" width="1600" height="1130" viewBox="0 0 1600 1130">
  <defs>
    <linearGradient id="grBrand" x1="0" y1="0" x2="0" y2="1"><stop offset="0" stop-color="#52796f"/><stop offset="1" stop-color="#2f3e46"/></linearGradient>
    <linearGradient id="grHead" x1="0" y1="0" x2="1" y2="1"><stop offset="0" stop-color="#52796f"/><stop offset="1" stop-color="#2f3e46"/></linearGradient>
  </defs>
  <rect width="1600" height="1130" fill="#eef2f0"/>
  <rect x="0" y="0" width="1600" height="168" fill="url(#grHead)"/><rect x="52" y="40" width="88" height="88" rx="20.240000000000002" fill="url(#grBrand)"/><g transform="translate(52,40) scale(0.171875)"><path d="M256 108 L360 146 V250 C360 326 310 378 256 406 C202 378 152 326 152 250 V146 Z" fill="#ffffff" fill-opacity="0.14" stroke="#cad2c5" stroke-width="10" stroke-linejoin="round"/><path d="M206 256 L242 296 L318 202" fill="none" stroke="#ffffff" stroke-width="30" stroke-linecap="round" stroke-linejoin="round"/></g><text x="164" y="84" font-family="DejaVu Sans" font-size="34" font-weight="bold" fill="#fff" text-anchor="start">Talent Shield HRMS</text><text x="164" y="124" font-family="DejaVu Sans" font-size="22" font-weight="normal" fill="#cad2c5" text-anchor="start">Install on iPhone / iPad</text><rect x="1337" y="62" width="211" height="44" rx="22" fill="rgba(255,255,255,0.14)" stroke="rgba(255,255,255,0.35)" stroke-width="1"/><text x="1442.5" y="90" font-family="DejaVu Sans" font-size="17" font-weight="bold" fill="#fff" text-anchor="middle">iPhone · Safari</text><rect x="0" y="1042" width="1600" height="88" fill="#2f3e46"/><text x="52" y="1090" font-family="DejaVu Sans" font-size="17" font-weight="normal" fill="#cad2c5" text-anchor="start">Add Talent Shield to your Home Screen using Safari — takes 20 seconds.</text><text x="1548" y="1082" font-family="DejaVu Sans" font-size="14" font-weight="normal" fill="#84a98c" text-anchor="end">Open in your browser:</text><text x="1548" y="1106" font-family="DejaVu Sans" font-size="20" font-weight="bold" fill="#fff" text-anchor="end">hrmsmobile.vitruxshield.com</text>
  <circle cx="362" cy="205" r="24" fill="url(#grBrand)"/><text x="362" y="214" font-family="DejaVu Sans" font-size="24" font-weight="bold" fill="#fff" text-anchor="middle">1</text><text x="362" y="262" font-family="DejaVu Sans" font-size="19" font-weight="bold" fill="#2f3e46" text-anchor="middle">Open the link in Safari,</text><text x="362" y="288" font-family="DejaVu Sans" font-size="19" font-weight="normal" fill="#2f3e46" text-anchor="middle">then tap the Share button.</text><rect x="176" y="300" width="372" height="742" rx="46" fill="#0c1416"/><rect x="179" y="303" width="366" height="736" rx="43" fill="#1c272c"/><clipPath id="clip0"><rect x="188" y="312" width="348" height="718" rx="34"/></clipPath><g clip-path="url(#clip0)"><rect x="188" y="312" width="348" height="718" fill="#fff"/><text x="210" y="333" font-family="DejaVu Sans" font-size="16" font-weight="bold" fill="#26333a" text-anchor="start">9:41</text><rect x="452" y="329" width="3.4" height="4" rx="1" fill="#26333a"/><rect x="457" y="326" width="3.4" height="7" rx="1" fill="#26333a"/><rect x="462" y="323" width="3.4" height="10" rx="1" fill="#26333a"/><rect x="467" y="320" width="3.4" height="13" rx="1" fill="#26333a"/><path d="M480 326 Q488 317 496 326" fill="none" stroke="#26333a" stroke-width="1.8"/><path d="M483 329 Q488 323 493 329" fill="none" stroke="#26333a" stroke-width="1.8"/><circle cx="488" cy="332" r="1.6" fill="#26333a"/><rect x="496" y="321" width="24" height="12" rx="3" fill="none" stroke="#26333a" stroke-width="1.5"/><rect x="498" y="323" width="16" height="8" rx="1.5" fill="#26333a"/><rect x="521" y="324.5" width="2.2" height="5" rx="1" fill="#26333a"/><rect x="188" y="342" width="348" height="64" fill="#f1f3f4"/><rect x="228" y="356" width="268" height="36" rx="18" fill="#fff" stroke="#e4e9e7" stroke-width="1"/><rect x="250" y="371.85" width="13" height="7.8" rx="2" fill="#7d8c87"/><path d="M252.6 371.85 V369.64 a3.9 3.9 0 0 1 7.8 0 V371.85" fill="none" stroke="#7d8c87" stroke-width="1.6"/><text x="272" y="379" font-family="DejaVu Sans" font-size="12.5" font-weight="normal" fill="#26333a" text-anchor="start">hrmsmobile.vitruxshield.com</text><path d="M471 374 a9 9 0 1 1 4.5 7.74" fill="none" stroke="#7d8c87" stroke-width="1.8"/><path d="M478.2 383 l4.95 -0.9 l-3.15 -4.95 z" fill="#7d8c87"/><rect x="188" y="406" width="348" height="566" fill="#f6f8f7"/><rect x="316" y="474" width="92" height="92" rx="21.16" fill="url(#grBrand)"/><g transform="translate(316,474) scale(0.1796875)"><path d="M256 108 L360 146 V250 C360 326 310 378 256 406 C202 378 152 326 152 250 V146 Z" fill="#ffffff" fill-opacity="0.14" stroke="#cad2c5" stroke-width="10" stroke-linejoin="round"/><path d="M206 256 L242 296 L318 202" fill="none" stroke="#ffffff" stroke-width="30" stroke-linecap="round" stroke-linejoin="round"/></g><text x="362" y="616" font-family="DejaVu Sans" font-size="27" font-weight="bold" fill="#2f3e46" text-anchor="middle">Talent Shield</text><text x="362" y="646" font-family="DejaVu Sans" font-size="15" font-weight="normal" fill="#7d8c87" text-anchor="middle">HRMS  ·  Employee Portal</text><rect x="223" y="680" width="278" height="48" rx="12" fill="#fff" stroke="#e4e9e7" stroke-width="1.5"/><text x="241" y="709" font-family="DejaVu Sans" font-size="16" font-weight="normal" fill="#7d8c87" text-anchor="start">Email address</text><rect x="223" y="740" width="278" height="48" rx="12" fill="#fff" stroke="#e4e9e7" stroke-width="1.5"/><text x="241" y="769" font-family="DejaVu Sans" font-size="16" font-weight="normal" fill="#7d8c87" text-anchor="start">Password</text><rect x="223" y="804" width="278" height="50" rx="12" fill="#52796f" /><text x="362" y="836" font-family="DejaVu Sans" font-size="18" font-weight="bold" fill="#fff" text-anchor="middle">Sign In</text><text x="362" y="886" font-family="DejaVu Sans" font-size="13" font-weight="normal" fill="#52796f" text-anchor="middle">Forgot password?</text><rect x="188" y="972" width="348" height="58" fill="#f1f3f4"/><line x1="188" y1="972" x2="536" y2="972" stroke="#e4e9e7" stroke-width="1"/><path d="M228 1002 l-9 8 l9 8" fill="none" stroke="#7d8c87" stroke-width="2.4" stroke-linecap="round" stroke-linejoin="round"/><path d="M276 1002 l9 8 l-9 8" fill="none" stroke="#7d8c87" stroke-width="2.4" stroke-linecap="round" stroke-linejoin="round"/><path d="M339.9 997 h-3.9 a4 4 0 0 0 -4 4 v14.3 a4 4 0 0 0 4 4 h26 a4 4 0 0 0 4 -4 v-14.3 a4 4 0 0 0 -4 -4 h-3.9" fill="none" stroke="#0a84ff" stroke-width="2.4"/><line x1="362" y1="983.4" x2="362" y2="1008.1" stroke="#0a84ff" stroke-width="2.4" stroke-linecap="round"/><path d="M356 989.4 l6 -7 l6 7" fill="none" stroke="#0a84ff" stroke-width="2.4" stroke-linecap="round" stroke-linejoin="round"/><path d="M440 992 h13 v18 l-6.5 -5 l-6.5 5 z" fill="none" stroke="#7d8c87" stroke-width="2" stroke-linejoin="round"/><rect x="484" y="990" width="20" height="20" rx="4" fill="none" stroke="#7d8c87" stroke-width="2"/><ellipse cx="362" cy="1007" rx="34" ry="30" fill="none" stroke="#e5484d" stroke-width="5"/></g><circle cx="800" cy="205" r="24" fill="url(#grBrand)"/><text x="800" y="214" font-family="DejaVu Sans" font-size="24" font-weight="bold" fill="#fff" text-anchor="middle">2</text><text x="800" y="262" font-family="DejaVu Sans" font-size="19" font-weight="bold" fill="#2f3e46" text-anchor="middle">In the menu, tap</text><text x="800" y="288" font-family="DejaVu Sans" font-size="19" font-weight="normal" fill="#2f3e46" text-anchor="middle">“Add to Home Screen”.</text><rect x="614" y="300" width="372" height="742" rx="46" fill="#0c1416"/><rect x="617" y="303" width="366" height="736" rx="43" fill="#1c272c"/><clipPath id="clip1"><rect x="626" y="312" width="348" height="718" rx="34"/></clipPath><g clip-path="url(#clip1)"><rect x="626" y="312" width="348" height="718" fill="#fff"/><rect x="626" y="312" width="348" height="718" fill="#f6f8f7"/><text x="648" y="333" font-family="DejaVu Sans" font-size="16" font-weight="bold" fill="#26333a" text-anchor="start">9:41</text><rect x="890" y="329" width="3.4" height="4" rx="1" fill="#26333a"/><rect x="895" y="326" width="3.4" height="7" rx="1" fill="#26333a"/><rect x="900" y="323" width="3.4" height="10" rx="1" fill="#26333a"/><rect x="905" y="320" width="3.4" height="13" rx="1" fill="#26333a"/><path d="M918 326 Q926 317 934 326" fill="none" stroke="#26333a" stroke-width="1.8"/><path d="M921 329 Q926 323 931 329" fill="none" stroke="#26333a" stroke-width="1.8"/><circle cx="926" cy="332" r="1.6" fill="#26333a"/><rect x="934" y="321" width="24" height="12" rx="3" fill="none" stroke="#26333a" stroke-width="1.5"/><rect x="936" y="323" width="16" height="8" rx="1.5" fill="#26333a"/><rect x="959" y="324.5" width="2.2" height="5" rx="1" fill="#26333a"/><rect x="770" y="382" width="60" height="60" rx="13.8" fill="url(#grBrand)"/><g transform="translate(770,382) scale(0.1171875)"><path d="M256 108 L360 146 V250 C360 326 310 378 256 406 C202 378 152 326 152 250 V146 Z" fill="#ffffff" fill-opacity="0.14" stroke="#cad2c5" stroke-width="10" stroke-linejoin="round"/><path d="M206 256 L242 296 L318 202" fill="none" stroke="#ffffff" stroke-width="30" stroke-linecap="round" stroke-linejoin="round"/></g><rect x="626" y="312" width="348" height="718" fill="#000" fill-opacity="0.32"/><rect x="626" y="462" width="348" height="608" rx="22" fill="#f2f2f4" /><rect x="782" y="472" width="36" height="5" rx="2.5" fill="#c7c7cc"/><rect x="642" y="490" width="316" height="60" rx="12" fill="#fff" /><rect x="656" y="500" width="40" height="40" rx="9.200000000000001" fill="url(#grBrand)"/><g transform="translate(656,500) scale(0.078125)"><path d="M256 108 L360 146 V250 C360 326 310 378 256 406 C202 378 152 326 152 250 V146 Z" fill="#ffffff" fill-opacity="0.14" stroke="#cad2c5" stroke-width="10" stroke-linejoin="round"/><path d="M206 256 L242 296 L318 202" fill="none" stroke="#ffffff" stroke-width="30" stroke-linecap="round" stroke-linejoin="round"/></g><text x="708" y="514" font-family="DejaVu Sans" font-size="15" font-weight="bold" fill="#26333a" text-anchor="start">Talent Shield HRMS</text><text x="708" y="536" font-family="DejaVu Sans" font-size="12.5" font-weight="normal" fill="#7d8c87" text-anchor="start">hrmsmobile.vitruxshield.com</text><text x="944" y="524" font-family="DejaVu Sans" font-size="13" font-weight="normal" fill="#0a84ff" text-anchor="end">Options</text><rect x="656" y="570" width="52" height="52" rx="13" fill="#34c759" /><text x="682" y="642" font-family="DejaVu Sans" font-size="11.5" font-weight="normal" fill="#7d8c87" text-anchor="middle">Messages</text><rect x="738" y="570" width="52" height="52" rx="13" fill="#0a84ff" /><text x="764" y="642" font-family="DejaVu Sans" font-size="11.5" font-weight="normal" fill="#7d8c87" text-anchor="middle">Mail</text><rect x="820" y="570" width="52" height="52" rx="13" fill="#ffcc00" /><text x="846" y="642" font-family="DejaVu Sans" font-size="11.5" font-weight="normal" fill="#7d8c87" text-anchor="middle">Notes</text><rect x="902" y="570" width="52" height="52" rx="13" fill="#8e8e93" /><text x="928" y="642" font-family="DejaVu Sans" font-size="11.5" font-weight="normal" fill="#7d8c87" text-anchor="middle">More</text><rect x="644" y="672" width="312" height="324" rx="14" fill="#fff" /><text x="666" y="706" font-family="DejaVu Sans" font-size="16.5" font-weight="normal" fill="#26333a" text-anchor="start">Copy</text><rect x="918" y="692" width="15" height="17" rx="3" fill="none" stroke="#26333a" stroke-width="2"/><rect x="914" y="688" width="15" height="17" rx="3" fill="#fff" stroke="#26333a" stroke-width="2"/><line x1="664" y1="726" x2="956" y2="726" stroke="#e4e9e7" stroke-width="1"/><text x="666" y="760" font-family="DejaVu Sans" font-size="16.5" font-weight="normal" fill="#26333a" text-anchor="start">Add to Reading List</text><circle cx="922" cy="751" r="8" fill="none" stroke="#26333a" stroke-width="2"/><line x1="928" y1="757" x2="935" y2="764" stroke="#26333a" stroke-width="2" stroke-linecap="round"/><line x1="664" y1="780" x2="956" y2="780" stroke="#e4e9e7" stroke-width="1"/><text x="666" y="814" font-family="DejaVu Sans" font-size="16.5" font-weight="normal" fill="#26333a" text-anchor="start">Add Bookmark</text><path d="M914 796 h13 v18 l-6.5 -5 l-6.5 5 z" fill="none" stroke="#26333a" stroke-width="2" stroke-linejoin="round"/><line x1="664" y1="834" x2="956" y2="834" stroke="#e4e9e7" stroke-width="1"/><text x="666" y="868" font-family="DejaVu Sans" font-size="16.5" font-weight="normal" fill="#26333a" text-anchor="start">Find on Page</text><circle cx="922" cy="859" r="8" fill="none" stroke="#26333a" stroke-width="2"/><line x1="928" y1="865" x2="935" y2="872" stroke="#26333a" stroke-width="2" stroke-linecap="round"/><line x1="664" y1="888" x2="956" y2="888" stroke="#e4e9e7" stroke-width="1"/><text x="666" y="922" font-family="DejaVu Sans" font-size="16.5" font-weight="bold" fill="#26333a" text-anchor="start">Add to Home Screen</text><rect x="914" y="904" width="#26333a" height="#26333a" rx="6" fill="none" stroke="#26333a" stroke-width="2"/><line x1="NaN" y1="910" x2="NaN" y2="NaN" stroke="#26333a" stroke-width="2" stroke-linecap="round"/><line x1="920" y1="NaN" x2="NaN" y2="NaN" stroke="#26333a" stroke-width="2" stroke-linecap="round"/><rect x="648" y="892" width="304" height="46" rx="12" fill="none" stroke="#e5484d" stroke-width="4.5"/><line x1="664" y1="942" x2="956" y2="942" stroke="#e4e9e7" stroke-width="1"/><text x="666" y="976" font-family="DejaVu Sans" font-size="16.5" font-weight="normal" fill="#26333a" text-anchor="start">Markup</text><path d="M914 976 l3 -9 l9 -9 l6 6 l-9 9 z" fill="none" stroke="#26333a" stroke-width="2" stroke-linejoin="round"/></g><circle cx="1238" cy="205" r="24" fill="url(#grBrand)"/><text x="1238" y="214" font-family="DejaVu Sans" font-size="24" font-weight="bold" fill="#fff" text-anchor="middle">3</text><text x="1238" y="262" font-family="DejaVu Sans" font-size="19" font-weight="bold" fill="#2f3e46" text-anchor="middle">Tap “Add”. The app now</text><text x="1238" y="288" font-family="DejaVu Sans" font-size="19" font-weight="normal" fill="#2f3e46" text-anchor="middle">lives on your Home Screen.</text><rect x="1052" y="300" width="372" height="742" rx="46" fill="#0c1416"/><rect x="1055" y="303" width="366" height="736" rx="43" fill="#1c272c"/><clipPath id="clip2"><rect x="1064" y="312" width="348" height="718" rx="34"/></clipPath><g clip-path="url(#clip2)"><rect x="1064" y="312" width="348" height="718" fill="#fff"/><rect x="1064" y="312" width="348" height="718" fill="#f2f2f4"/><text x="1086" y="333" font-family="DejaVu Sans" font-size="16" font-weight="bold" fill="#26333a" text-anchor="start">9:41</text><rect x="1328" y="329" width="3.4" height="4" rx="1" fill="#26333a"/><rect x="1333" y="326" width="3.4" height="7" rx="1" fill="#26333a"/><rect x="1338" y="323" width="3.4" height="10" rx="1" fill="#26333a"/><rect x="1343" y="320" width="3.4" height="13" rx="1" fill="#26333a"/><path d="M1356 326 Q1364 317 1372 326" fill="none" stroke="#26333a" stroke-width="1.8"/><path d="M1359 329 Q1364 323 1369 329" fill="none" stroke="#26333a" stroke-width="1.8"/><circle cx="1364" cy="332" r="1.6" fill="#26333a"/><rect x="1372" y="321" width="24" height="12" rx="3" fill="none" stroke="#26333a" stroke-width="1.5"/><rect x="1374" y="323" width="16" height="8" rx="1.5" fill="#26333a"/><rect x="1397" y="324.5" width="2.2" height="5" rx="1" fill="#26333a"/><text x="1086" y="380" font-family="DejaVu Sans" font-size="16" font-weight="normal" fill="#0a84ff" text-anchor="start">Cancel</text><text x="1238" y="380" font-family="DejaVu Sans" font-size="16" font-weight="bold" fill="#26333a" text-anchor="middle">Add to Home Screen</text><text x="1388" y="380" font-family="DejaVu Sans" font-size="16" font-weight="bold" fill="#0a84ff" text-anchor="end">Add</text><ellipse cx="1372" cy="375" rx="36" ry="24" fill="none" stroke="#e5484d" stroke-width="5"/><line x1="1064" y1="400" x2="1412" y2="400" stroke="#e4e9e7" stroke-width="1"/><rect x="1080" y="426" width="316" height="118" rx="14" fill="#fff" /><rect x="1098" y="444" width="68" height="68" rx="15.64" fill="url(#grBrand)"/><g transform="translate(1098,444) scale(0.1328125)"><path d="M256 108 L360 146 V250 C360 326 310 378 256 406 C202 378 152 326 152 250 V146 Z" fill="#ffffff" fill-opacity="0.14" stroke="#cad2c5" stroke-width="10" stroke-linejoin="round"/><path d="M206 256 L242 296 L318 202" fill="none" stroke="#ffffff" stroke-width="30" stroke-linecap="round" stroke-linejoin="round"/></g><text x="1182" y="468" font-family="DejaVu Sans" font-size="18" font-weight="bold" fill="#26333a" text-anchor="start">HRMS</text><line x1="1182" y1="482" x2="1378" y2="482" stroke="#e4e9e7" stroke-width="1"/><text x="1182" y="512" font-family="DejaVu Sans" font-size="13" font-weight="normal" fill="#7d8c87" text-anchor="start">hrmsmobile.vitruxshield.com</text><text x="1088" y="590" font-family="DejaVu Sans" font-size="13.5" font-weight="normal" fill="#7d8c87" text-anchor="start">An icon will be added to your Home</text><text x="1088" y="612" font-family="DejaVu Sans" font-size="13.5" font-weight="normal" fill="#7d8c87" text-anchor="start">Screen so you can quickly access this</text><text x="1088" y="634" font-family="DejaVu Sans" font-size="13.5" font-weight="normal" fill="#7d8c87" text-anchor="start">website.</text></g>
</svg>